<?xml version="1.0" encoding="UTF-8"?>
<svg xmlns="http://www.w3.org/2000/svg" version="1.1" viewBox="0 0 223.49 225.87">
  <defs>
    <style>
      .cls-1 {
        fill: #7e1d20;
      }

      .cls-2 {
        fill: #231f20;
      }

      .cls-3 {
        fill: none;
        stroke: #7e1d20;
        stroke-linecap: round;
        stroke-miterlimit: 10;
        stroke-width: 7px;
      }
    </style>
  </defs>
  <!-- Generator: Adobe Illustrator 28.6.0, SVG Export Plug-In . SVG Version: 1.2.0 Build 709)  -->
  <g>
    <g id="Layer_1">
      <g>
        <path class="cls-2" d="M134.83,92.27c-.14-.82.57-1.53,1.39-1.39.66.11,1.28-.33,1.39-.99l1.83-10.74c.11-.66-.33-1.28-.99-1.39l-20.71-3.53c-1.16-.2-1.64,1.02-1.05,2.04,1.02,1.77,3.77,8.37,4.67,12.08,1.74,7.12,1.21,14.68-.23,23.09-3.59,21.06-19.61,35.9-35.79,33.14-16.19-2.76-26.4-22.06-22.81-43.12,1.43-8.4,3.74-15.76,7.93-21.77,1.74-2.49,6.88-7.7,9.29-9.75.86-.73.72-2.05-.4-2.24l-22.3-3.8c-.66-.11-1.28.33-1.39.99l-1.83,10.74c-.11.66.33,1.28.99,1.39l.27.05c.82.14,1.26,1.05.85,1.77-3.37,6.01-5.84,12.86-7.1,20.29-4.93,28.97,10.31,55.74,34.05,59.78s46.98-16.17,51.92-45.15c1.26-7.43,1.2-14.71.01-21.49ZM57.36,87.38c.14-.21.41-.32.66-.27l1.97.41c.4.08.62.53.44.9-1.31,2.55-1.87,5.25-1.7,8.1.03.41-.36.73-.76.65l-1.97-.41c-.25-.05-.45-.25-.5-.51-.55-3.2.07-6.16,1.86-8.87ZM56.26,115.92l-2.01.17c-.26.02-.51-.11-.62-.34-1.44-2.91-1.69-5.92-.75-9.03.07-.25.3-.42.55-.44l2.01-.17c.41-.03.75.33.67.74-.53,2.81-.3,5.56.68,8.25.14.39-.13.8-.54.84ZM61.38,133.01l-1.84.83c-.23.11-.51.06-.7-.12-2.33-2.26-3.57-5.02-3.72-8.27-.01-.26.14-.5.38-.6l1.84-.83c.38-.17.82.06.88.47.44,2.83,1.57,5.34,3.4,7.55.26.32.14.8-.23.97ZM88.71,154.13c-.04.25-.24.46-.49.51-3.18.67-6.16.17-8.94-1.52-.22-.13-.33-.39-.29-.65l.34-1.98c.07-.41.51-.64.88-.47,2.59,1.21,5.31,1.67,8.16,1.39.41-.04.74.33.67.73l-.34,1.98ZM127.7,99.06l2,.26c.26.03.47.22.53.47.79,3.15.4,6.15-1.18,8.99-.13.22-.38.35-.64.31l-2-.26c-.41-.05-.66-.48-.5-.86,1.11-2.64,1.47-5.37,1.08-8.21-.06-.41.3-.76.71-.7ZM119.74,136.45c-1.21,3.02-3.29,5.21-6.24,6.57-.23.11-.51.06-.7-.12l-1.46-1.39c-.3-.28-.25-.78.1-.99,2.45-1.48,4.35-3.48,5.7-6,.19-.36.69-.44.99-.15l1.46,1.39c.19.18.25.45.16.69ZM124.37,127.78c-.18.18-.46.23-.7.12l-1.84-.82c-.38-.17-.5-.65-.24-.97,1.81-2.21,2.94-4.73,3.37-7.56.06-.41.5-.64.88-.47l1.84.82c.23.1.39.34.38.6-.14,3.25-1.37,6.01-3.69,8.28Z"/>
        <path class="cls-2" d="M163.89,102.55c-.49-.67-.15-1.63.65-1.86.64-.19,1.01-.86.82-1.5l-3.04-10.46c-.19-.64-.86-1.01-1.5-.82l-20.18,5.86c-1.13.33-1.03,1.64-.06,2.3,1.69,1.15,7.04,5.89,9.47,8.83,4.67,5.65,7.49,12.68,9.87,20.87,5.96,20.51-1.98,40.86-17.74,45.44-15.77,4.58-33.38-8.33-39.34-28.85-2.38-8.19-3.51-15.81-2.36-23.05.48-3,2.83-9.93,4.1-12.83.46-1.04-.25-2.16-1.33-1.84l-21.72,6.31c-.64.19-1.01.86-.82,1.5l3.04,10.46c.19.64.86,1.01,1.5.82l.27-.08c.8-.23,1.59.39,1.54,1.22-.41,6.88.36,14.12,2.46,21.35,8.2,28.22,33.6,45.65,56.72,38.93,23.12-6.72,35.22-35.05,27.02-63.27-2.1-7.23-5.34-13.76-9.37-19.35ZM92.06,131.95c.03-.26.23-.46.48-.53l1.95-.49c.4-.1.79.2.78.62-.06,2.86.61,5.54,2.01,8.03.2.36,0,.81-.4.91l-1.95.49c-.25.06-.52-.03-.67-.24-1.9-2.64-2.63-5.57-2.2-8.79ZM103.51,158.11l-1.73,1.02c-.22.13-.5.12-.71-.04-2.57-1.99-4.11-4.59-4.61-7.8-.04-.25.08-.51.31-.64l1.73-1.02c.35-.21.82-.03.93.37.75,2.76,2.16,5.14,4.21,7.13.3.29.23.78-.12.99ZM115.58,171.26l-1.29,1.54c-.17.2-.44.28-.68.2-3.09-1.02-5.4-2.96-6.95-5.82-.12-.23-.09-.51.08-.71l1.29-1.54c.26-.32.76-.3,1,.04,1.63,2.35,3.75,4.12,6.35,5.31.37.17.48.66.21.97ZM149.39,178.34c.07.25-.01.52-.21.68-2.57,1.99-5.47,2.84-8.7,2.53-.26-.02-.47-.21-.54-.46l-.56-1.93c-.12-.4.17-.8.59-.81,2.86-.04,5.51-.81,7.95-2.31.35-.22.81-.03.93.37l.56,1.93ZM160.44,111.77l1.91-.63c.24-.08.52,0,.68.19,2.09,2.49,3.04,5.36,2.86,8.6-.01.26-.19.48-.43.56l-1.91.63c-.39.13-.81-.14-.83-.56-.15-2.86-1.02-5.48-2.61-7.86-.23-.34-.06-.81.33-.94ZM169.59,148.89c.23,3.24-.69,6.12-2.75,8.64-.16.2-.44.28-.68.2l-1.92-.61c-.39-.13-.57-.59-.34-.94,1.56-2.4,2.4-5.03,2.51-7.89.02-.41.43-.69.82-.57l1.92.61c.25.08.42.3.44.55ZM169.97,139.06c-.09.24-.32.41-.58.41l-2.01.06c-.41.01-.73-.37-.63-.77.67-2.78.58-5.54-.26-8.27-.12-.39.17-.79.58-.81l2.01-.06c.26,0,.5.14.6.38,1.29,2.98,1.39,6,.29,9.06Z"/>
      </g>
      <g>
        <path class="cls-1" d="M22.35,72.7l-3.25-2.19c-2-1.35-4.19.71-4.28.66l-5.34-3.6c-.44-.29-.35-.91.29-1.87l4.56-6.76c.65-.96,1.19-1.26,1.62-.97l5.34,3.6c.09.06-.79,2.55,1.09,3.94l3.66-5.42c-1.97-1.2-3.98.52-4.07.46l-5.33-3.6c-.44-.29-.35-.91.29-1.87l4.56-6.76c.65-.96,1.19-1.26,1.63-.97l5.34,3.6c.09.06-1,2.87,1,4.22l3.25,2.19c2,1.35,4.19-.72,4.28-.66l5.34,3.6c.43.29.35.91-.29,1.87l-4.56,6.76c-.43.64-1.02,1.38-1.62.97l-5.34-3.6c-.09-.06.85-2.63-1.15-3.98l-.99-.67-3.66,5.42.99.67c2,1.35,4.04-.48,4.12-.42l5.34,3.6c.43.29.35.91-.29,1.87l-4.56,6.76c-.65.96-1.19,1.27-1.62.97l-5.34-3.6c-.09-.06,1-2.87-1-4.22Z"/>
        <path class="cls-1" d="M39.41,58.69l-5.51-5.62c-2.08-2.12-3.5-4.06,1.12-8.6l.32-.32c4.94-4.85,6.54-3.72,8.94-1.28l5.51,5.62c1.72,1.75,3.23,3.59-1.83,8.57-5.17,5.07-6.93,3.28-8.55,1.63ZM38.78,50.91l2.43,2.47c1.23,1.25,2.59.54,3.17-.02.57-.56,1.3-1.92.08-3.17l-2.43-2.47c-1.15-1.17-2.44-.49-3.07.12-.57.56-1.33,1.89-.18,3.07Z"/>
        <path class="cls-1" d="M53.78,42.12c1,1.35,2.67.73,2.73.81l2.72,3.69c.23.31,0,.7-.65,1.18l-4.81,3.55c-.65.48-1.09.59-1.32.28l-2.72-3.69c-.06-.08,1.05-1.52.06-2.87l-1.64-2.22c-1.02-1.38-2.72-.73-2.76-.79l-2.7-3.66c-.27-.37.07-.79.63-1.21l2.7-1.99.49.25c.37.21.41-.91.98-1.33l3.83-2.82c.34-.25.69-.07,1.12.52l2.58,3.49c.33.45.26.59-.08.84l-2.36,1.74c-.65.48-.74.24-.92-.01l-.4-.53c-.27-.37-.38-.28-.92.11l3.45,4.67Z"/>
        <path class="cls-1" d="M71.01,31.41l1.93,3.57c1.16,2.15.91,3.96-4.57,6.92-5.54,2.99-7.13,2.03-8.23,0l-1.38-2.55c-.2-.37.07-.75.84-1.17l2.09-1.13c.77-.42,1.22-.54,1.34-.32,1.12,1.42,2.48.84,2.88.63,1.11-.6,1.58-1.93,1.05-2.91-.2-.37-.32-.66-.35-.65l-1.29.7c-4.74,2.56-7.49,3.13-8.27,1.69l-1.66-3.08c-1.05-1.94-1.54-3.74,4.49-7l.4-.22c1.14-.61,2.24-1.01,3.18-1.32.29-.35.42-.55.45-.56l1.35-.73c.71-.38,1.13-.41,1.31-.07l3.14,5.82c.18.34-.07.67-.78,1.06l-2.28,1.23c-.71.38-1.18.4-1.36.06-.53-.98-1.85-1.23-2.96-.63-.96.51-1.72,1.6-1.02,2.9l.35.65c1.75-.95,8.61-4.21,9.35-2.86Z"/>
        <path class="cls-1" d="M79.64,31.39c.43-.15,1.81-.87,1.33-2.19-.13-.36.2-.7.95-.97l2.63-.94c.69-.25,1.09-.17,1.22.19l.48,1.35c1,2.8,1.58,5.04-5.14,7.45-6.03,2.15-7.5.53-8.12-1.22l-3.21-8.99c-1.18-3.29.11-4.98,4.82-6.66l.46-.16c5.76-2.06,7.36-1.03,8.31,1.63l1.75,4.91c.13.36-.14.64-.83.89l-8,2.86.2.56c.49,1.38,1.85,1.75,3.14,1.29ZM79.9,25.98l-.13-.36c-.35-.99-1.06-2.15-3.01-1.45-1.98.71-1.54,2.22-1.14,3.34l4.28-1.53Z"/>
        <path class="cls-1" d="M100.13,23.31l.78,3.98c.47,2.4-.32,4.05-6.43,5.24-6.18,1.2-7.41-.2-7.85-2.46l-.55-2.85c-.08-.41.29-.7,1.15-.87l2.33-.45c.86-.17,1.32-.15,1.37.09.65,1.69,2.12,1.55,2.56,1.46,1.24-.24,2.09-1.37,1.87-2.47-.08-.41-.11-.73-.14-.72l-1.44.28c-5.29,1.03-8.08.75-8.4-.86l-.67-3.43c-.42-2.16-.36-4.03,6.37-5.34l.45-.09c1.27-.25,2.44-.3,3.43-.31.38-.25.56-.4.6-.4l1.51-.29c.79-.15,1.2-.06,1.27.32l1.26,6.49c.07.38-.27.62-1.06.78l-2.54.49c-.79.15-1.24.03-1.32-.35-.21-1.1-1.4-1.72-2.64-1.48-1.06.21-2.12,1.02-1.84,2.46l.14.72c1.96-.38,9.48-1.45,9.77.06Z"/>
        <path class="cls-1" d="M102.45,23.47l-.26-9.93c-.04-1.64-1.8-2.09-1.81-2.19l-.12-4.58c-.01-.38.4-.57,1.21-.59l6.12-.16c.73-.02,1.09.15,1.1.53l.12,4.58c0,.07-1.7.6-1.66,2.04.7-.09,1.39-.21,2.06-.23,2.2-.09,6.87.38,6.92,2.37l.21,7.9c.05,1.75,1.8,2.09,1.81,2.23l.12,4.44c.01.35-.23.6-1.21.63l-5.7.15c-.94.02-1.23-.18-1.24-.56l-.12-4.44c0-.1,1.42-.56,1.37-2.31l-.07-2.62c-.04-1.43-.75-2.11-2.05-2.08-1.22.03-1.94.82-1.9,2.18l.07,2.62c.04,1.68,1.49,1.99,1.49,2.13l.12,4.54c.01.38-.37.6-1.21.63l-5.84.15c-.73.02-1.09-.15-1.1-.53l-.12-4.58c0-.07,1.73-.82,1.69-2.32Z"/>
        <path class="cls-1" d="M118.06,26.01l1.1-7.79c.42-2.94,1.09-5.25,7.5-4.34l.45.06c6.86.97,6.93,2.92,6.45,6.31l-1.1,7.79c-.34,2.42-.88,4.75-7.91,3.76-7.17-1.01-6.82-3.51-6.49-5.79ZM123.84,20.79l-.48,3.43c-.24,1.73,1.15,2.39,1.94,2.5.8.11,2.31-.13,2.56-1.86l.49-3.43c.23-1.63-1.1-2.24-1.96-2.36-.8-.11-2.31.1-2.54,1.73Z"/>
        <path class="cls-1" d="M139.75,29.94c.43.13,1.97.37,2.37-.97.11-.37.57-.45,1.34-.22l2.68.81c.7.21.98.51.87.88l-.42,1.37c-.86,2.85-1.72,5-8.56,2.94-6.13-1.85-6.35-4.03-5.81-5.81l2.76-9.14c1.01-3.35,3.05-3.94,7.84-2.5l.47.14c5.86,1.77,6.53,3.54,5.71,6.25l-1.5,4.99c-.11.37-.5.44-1.2.22l-8.14-2.45-.17.57c-.42,1.41.45,2.51,1.75,2.9ZM143.17,25.75l.11-.37c.3-1,.42-2.36-1.56-2.95-2.01-.61-2.56.87-2.91,2.01l4.35,1.31Z"/>
        <path class="cls-1" d="M167.73,37.65c.17-.27.79-.09,1.84.56l2.86,1.76c1.04.64,1.43,1.21,1.12,1.72l-2.16,3.52c-1.59,2.59-3.57,4.33-11.61-.62-8.52-5.24-7.21-7.97-5.86-10.17l7.44-12.1c2.04-3.31,4.02-3.85,11.58.8l.57.35c1.79,1.1,3.34,2.51,3.84,2.98.6.08.95.13,1,.17l1.82,1.12c.98.61,1.31,1.14,1.04,1.58l-4.88,7.92c-.27.45-.9.39-1.88-.21l-3.1-1.91c-.98-.61-1.31-1.14-1-1.64.87-1.68-.12-3.28-1.34-4.03-1.52-.94-3.3-.71-4.23.8l-2.24,3.63c-.97,1.58-.21,3.48,1.31,4.42,1.37.84,2.86.57,3.89-.65Z"/>
        <path class="cls-1" d="M170.34,46.34c2.42-2.62,2.87-3.02,3.49-2.97.99.11,5.2,3.08,7.39,5.09,1.16-1.26,1.89-2.11.27-3.6-1.34-1.23-2.21-.8-3.04.1l-3.27-3.01c-.28-.26-.13-.69.42-1.28l3.22-3.5c.54-.59.96-.78,1.24-.52l2.93,2.7c.95.88.48.92.68.91l1.37.88c5.45,4.35,4.45,5.9,2.68,7.83l-4.29,4.66c-1.14,1.24.08,3.02,0,3.09l-3.1,3.37c-.26.28-.69.13-1.28-.42l-4.2-3.86c.43-.46-1.18-.94-1.85-1.56-4.79-4.41-4.24-6.23-2.68-7.93ZM176.53,50.46c.67.62,1.96,1.18,3.33-.31l-3.35-3.08-.45.49c-.76.82-.41,2.1.47,2.9Z"/>
        <path class="cls-1" d="M199.39,52.53l-2.13,1.76.6.73c.36.43.55,1,.31,1.2l-3.5,2.9c-.08.07-1.72-1.25-3.04-.16l-2.21,1.83c-1.29,1.07-.6,2.68-.68,2.74l-3.53,2.92c-.3.25-.7.03-1.21-.59l-3.81-4.61c-.51-.62-.64-1.05-.35-1.3l3.53-2.92c.08-.07,1.55.99,2.87-.1l2.26-1.87c1.19-.98.25-2.88.35-2.97l3.45-2.85c.38-.31.5-.33.95.21l.85,1.02,1.4-1.16c2.69-2.23,4.79-2.6,7.09.17l3.03,3.66c.27.32.11.68-.46,1.15l-3.34,2.77c-.43.36-.57.29-.84-.03l-2.1-2.53c-.49-.59,1.33-.97.51-1.96Z"/>
        <path class="cls-1" d="M193.21,70.58c.24.38,1.25,1.57,2.43.82.32-.21.73.04,1.16.71l1.5,2.36c.39.62.4,1.03.08,1.23l-1.21.77c-2.51,1.59-4.57,2.65-8.4-3.37-3.43-5.4-2.17-7.2-.6-8.19l8.06-5.12c2.95-1.87,4.88-.99,7.56,3.23l.26.41c3.28,5.17,2.63,6.95.24,8.47l-4.4,2.79c-.33.21-.66,0-1.05-.62l-4.56-7.17-.5.32c-1.24.79-1.3,2.19-.57,3.34ZM198.53,69.65l.32-.21c.88-.56,1.86-1.51.75-3.25-1.12-1.77-2.51-1.02-3.51-.38l2.44,3.84Z"/>
      </g>
      <path class="cls-3" d="M201.44,79.55c5.61,12.36,8.73,26.09,8.73,40.55,0,54.29-44.01,98.29-98.3,98.29S13.58,174.39,13.58,120.11c0-13.47,2.71-26.3,7.61-37.99"/>
    </g>
  </g>
</svg>