<?xml version="1.0" encoding="UTF-8"?>
<svg xmlns="http://www.w3.org/2000/svg" version="1.1" viewBox="0 0 204.69 116.69">
  <defs>
    <style>
      .cls-1 {
        fill: #9c3632;
      }

      .cls-2 {
        fill: none;
        stroke: #9c3632;
        stroke-miterlimit: 10;
      }
    </style>
  </defs>
  <!-- Generator: Adobe Illustrator 28.6.0, SVG Export Plug-In . SVG Version: 1.2.0 Build 709)  -->
  <g>
    <g id="Layer_1">
      <g>
        <path class="cls-1" d="M23.87,54.63c.5.58.5.65,1.01,1.3.5.72,1.3.58,1.01,1.37-.22.72-1.01-.07-2.02-.07-.94,0-.94.07-2.02.07h-3.96c-1.01,0-1.58.86-2.02,0-.65-1.08.58-1.3.5-2.52,0-.94-.22-.94-.43-1.87-.36-.94-.43-.94-.72-1.8-.36-.94-.22-.94-.58-1.8l-.58-1.8-.58-1.87q-.36-.94-.65-1.8c-.36-.94-.22-.94-.58-1.8q-.29-1.01-.65-1.87l-.58-1.8c-.43-1.15-.79-1.3-1.22-.29-.36.86-.36.79-.72,1.58l-.65,1.51c-.29.79-.36.79-.5,1.58-.22.86-.07.94-.07,1.8v5.62c0,.94.07.94.07,1.8,0,.94-.22.94,0,1.94.07.86.22.86.36,1.66.22.86.94,1.01.5,1.73-.58.72-.86,0-1.73,0h-3.46c-.86,0-.86-.07-1.73-.07s-1.15.79-1.73.07c-.5-.72.22-.86.43-1.73.22-.86.36-.79.43-1.66q.07-1.01.07-1.94c0-.94-.07-.94-.07-1.94,0-.94.07-.94.07-1.94v-3.74c0-1.01-.07-1.01-.07-1.94s.07-.94.07-1.94-.07-1.01-.07-1.94.07-.94.07-1.87v-7.71c0-.94-.07-.94-.07-1.87s.07-.94.07-1.94v-3.89c0-.94-.07-.94-.07-1.87v-1.87c0-1.01.07-1.01.07-1.94s-.07-.94-.07-1.87.07-.94.07-2.02v-3.74c0-1.01.07-1.01,0-1.94-.07-.86-.22-.86-.36-1.73-.29-.86-1.08-1.01-.58-1.66.58-.72.86,0,1.73,0h5.18c.86,0,1.15-.72,1.73,0,.43.72-.29.86-.5,1.66-.22.86-.29.86-.43,1.73s.07.86.07,1.8-.07.94-.07,1.8v3.6c0,.86.07.86.07,1.73,0,1.01-.07,1.01-.07,1.87s.07.86.07,1.8c0,.86-.07.86-.07,1.73,0,.94.07.94.07,1.87l-.07,1.3c-.14.94.36,1.44.58.58q.29-.94.65-1.87t.65-1.8l.72-1.8.72-1.73.72-1.73.79-1.8.58-1.8c.43-.86.43-.79.79-1.73q.36-.86.65-1.73c.43-.86.36-.86.72-1.73.36-.94.72-.79.79-1.8.07-1.01-1.08-1.15-.43-1.94.58-.79.94-.07,1.94-.07s1.01.07,2.09.07h4.03c1.01,0,1.44-.86,2.02,0,.5.72-.5.72-1.01,1.37q-.58.65-1.08,1.3c-.5.72-.65.65-1.08,1.37-.43.79-.36.86-.72,1.73l-.79,1.66-.58,1.73c-.43.94-.36.94-.72,1.8s-.43.86-.72,1.73q-.43.86-.72,1.66-.43.86-.72,1.73l-.72,1.73-.72,1.8c-.36.86-.36.79-.79,1.66q-.29.86-.72,1.73c-.79,1.73-.58,1.87-.07,3.6.29.94.36.94.65,1.87q.29.94.65,1.8.29.94.65,1.87c.29,1.01.22,1.01.5,1.94.36.86.43.86.72,1.8.36.94.36.86.65,1.8.29,1.01.22,1.01.58,1.94.29.94.36.86.72,1.8l.58,1.94c.36.86.29.94.58,1.87.22.86.36.86.65,1.8l.65,1.87c.29.94.36,1.01.79,1.87.36.72.22.65.79,1.3Z"/>
        <path class="cls-1" d="M55.47,57.3c-.86-.22-.94,0-1.8,0-.94,0-.94-.07-1.87-.07s-.94.07-1.87.07h-11.23c-.86,0-1.22.72-1.8,0-.65-.65.14-.86.36-1.73.29-.79.36-.79.5-1.66.07-1.01,0-1.01,0-1.94,0-1.01-.07-1.01-.07-1.94s.07-.94.07-1.94v-1.87c0-.94-.07-.94-.07-1.87,0-1.08.07-1.08.07-2.02v-1.87c0-1.01-.07-1.01-.07-1.94s.07-.94.07-1.87v-7.71c0-.94-.07-.94-.07-1.94v-1.94c0-.94.07-.94.07-1.87s-.07-.94-.07-1.94c0-.94.07-.94.07-1.94v-1.87c0-1.01-.07-1.01-.07-1.94s.07-.94.07-1.87v-1.94c0-1.01-.07-1.01-.07-1.94s.07-.94.07-1.94c0-.94.14-.94,0-1.87-.07-.86-.22-.86-.5-1.66-.22-.86-.94-1.01-.36-1.66.65-.72.94,0,1.8,0,.94,0,.94.07,1.94.07.94,0,.94-.07,1.8-.07h1.87c1.01,0,1.01-.07,1.94-.07.86,0,.86.07,1.8.07h5.62c.86,0,.86-.07,1.8-.07,1.01,0,1.22-.58,1.94.07.72.65.14.94.29,1.87q.14.94.36,1.94l.29,1.87c.14.94.94,1.22.29,1.87-.58.65-.86-.22-1.8-.43-.86-.14-.86-.22-1.73-.36-.94-.14-.94,0-2.02,0h-3.82c-1.01,0-1.01-.07-2.02-.07-.94,0-.72-.07-1.58.22-.58.14-.79.36-.94.94-.22.86-.14.72-.14,1.66v7.78c0,1.01-.07,1.01-.07,1.94s.07.94.07,1.94-.07.65.14,1.66c.14.5.36.94.94,1.01,1.3.29,1.01.22,2.38.07.86-.07.86-.14,1.66-.36.86-.29,1.01-1.08,1.73-.5.72.5,0,.86,0,1.66v5.18c0,.86.65,1.15,0,1.73-.72.43-.86-.14-1.73-.43-.86-.22-.79-.43-1.66-.5-1.37-.22-1.08-.22-2.38.07-.58.14-.86.36-1.01.94-.29.86-.14.79-.14,1.73,0,1.01.07,1.01.07,2.02v5.76c0,1.01-.07,1.01-.07,1.94,0,1.01.07,1.01.07,1.94,0,1.01-.07.72.22,1.66.14.58.29.72.86.86.94.29.65.22,1.58.22h5.83c1.08,0,1.08.07,2.02,0,.86-.07.86-.14,1.73-.36.94-.14,1.22-1.15,1.8-.43.72.65-.22.94-.36,1.94l-.29,1.87c-.22.94-.14.94-.29,2.02-.14.94.43,1.15-.29,1.87-.72.58-.94.14-1.94,0Z"/>
        <path class="cls-1" d="M88.74,57.3c-.86-.22-.94,0-1.8,0-.94,0-.94-.07-1.87-.07s-.94.07-1.87.07h-11.23c-.86,0-1.22.72-1.8,0-.65-.65.14-.86.36-1.73.29-.79.36-.79.5-1.66.07-1.01,0-1.01,0-1.94,0-1.01-.07-1.01-.07-1.94s.07-.94.07-1.94v-1.87c0-.94-.07-.94-.07-1.87,0-1.08.07-1.08.07-2.02v-1.87c0-1.01-.07-1.01-.07-1.94s.07-.94.07-1.87v-7.71c0-.94-.07-.94-.07-1.94v-1.94c0-.94.07-.94.07-1.87s-.07-.94-.07-1.94c0-.94.07-.94.07-1.94v-1.87c0-1.01-.07-1.01-.07-1.94s.07-.94.07-1.87v-1.94c0-1.01-.07-1.01-.07-1.94s.07-.94.07-1.94c0-.94.14-.94,0-1.87-.07-.86-.22-.86-.5-1.66-.22-.86-.94-1.01-.36-1.66.65-.72.94,0,1.8,0,.94,0,.94.07,1.94.07.94,0,.94-.07,1.8-.07h1.87c1.01,0,1.01-.07,1.94-.07.86,0,.86.07,1.8.07h5.62c.86,0,.86-.07,1.8-.07,1.01,0,1.22-.58,1.94.07.72.65.14.94.29,1.87q.14.94.36,1.94l.29,1.87c.14.94.94,1.22.29,1.87-.58.65-.86-.22-1.8-.43-.86-.14-.86-.22-1.73-.36-.94-.14-.94,0-2.02,0h-3.82c-1.01,0-1.01-.07-2.02-.07-.94,0-.72-.07-1.58.22-.58.14-.79.36-.94.94-.22.86-.14.72-.14,1.66v7.78c0,1.01-.07,1.01-.07,1.94s.07.94.07,1.94-.07.65.14,1.66c.14.5.36.94.94,1.01,1.3.29,1.01.22,2.38.07.86-.07.86-.14,1.66-.36.86-.29,1.01-1.08,1.73-.5.72.5,0,.86,0,1.66v5.18c0,.86.65,1.15,0,1.73-.72.43-.86-.14-1.73-.43-.86-.22-.79-.43-1.66-.5-1.37-.22-1.08-.22-2.38.07-.58.14-.86.36-1.01.94-.29.86-.14.79-.14,1.73,0,1.01.07,1.01.07,2.02v5.76c0,1.01-.07,1.01-.07,1.94,0,1.01.07,1.01.07,1.94,0,1.01-.07.72.22,1.66.14.58.29.72.86.86.94.29.65.22,1.58.22h5.83c1.08,0,1.08.07,2.02,0,.86-.07.86-.14,1.73-.36.94-.14,1.22-1.15,1.8-.43.72.65-.22.94-.36,1.94l-.29,1.87c-.22.94-.14.94-.29,2.02-.14.94.43,1.15-.29,1.87-.72.58-.94.14-1.94,0Z"/>
        <path class="cls-1" d="M111.49,55.64c.22.79.94.94.43,1.66-.5.65-.79,0-1.66,0h-1.8c-.79,0-.79-.07-1.66-.07s-.86.07-1.73.07-1.15.72-1.73,0c-.5-.72.22-.86.43-1.66.29-.86.36-.79.5-1.66.07-.94,0-.94,0-1.94v-3.89c0-.94-.07-.94-.07-1.87v-7.7c0-.94.07-.94.07-1.87s-.07-.94-.07-2.02c0-.94.07-.94.07-1.87v-3.82c0-.94-.07-.94-.07-1.87,0-1.01.07-1.01.07-2.02,0-.94-.07-.94-.07-1.87v-1.87c0-1.01.07-1.01.07-1.94v-3.89c0-.94-.07-.94-.07-1.87v-1.94c0-1.01.07-1.01.07-1.94s-.07-.94-.07-1.87c0-1.01.14-1.01.07-1.94-.14-.86-.22-.86-.5-1.73-.22-.79-1.01-1.01-.36-1.66.65-.72.94,0,1.95,0h2.02c1.01,0,1.01-.07,1.94-.07,1.08,0,1.08.07,2.02.07,1.01,0,1.01-.07,2.09-.07.94,0,.94.07,1.94.07s1.01-.07,2.02-.07,1.01.07,1.94.07c1.01,0,1.08-.43,2.09,0,.72.22.5.58,1.08,1.08.58.58.58.65,1.08,1.22.58.5.94.29,1.22,1.08.29.86-.07.94-.07,1.8v5.54c0,1.01.07,1.01.07,1.87v11.09c0,.94-.07.94-.07,1.87,0,.86.36.94.07,1.8-.22.79-.58.65-1.08,1.22-.58.58-.65.5-1.22,1.01-.58.65-.36.86-1.08,1.22-1.01.29-1.01,0-1.94,0h-5.69c-.94,0-.72-.07-1.58.14-.58.14-.94.65-1.01,1.15-.07.43-.14.43-.14,1.44v2.02c0,.94.07.94.07,1.94,0,.94-.07.94-.07,2.02,0,.94.07.94.07,1.94v3.96c0,.94-.07.94-.07,2.02,0,.94.07.94.07,1.94,0,.94-.29,1.08-.07,2.02.07.86.14.86.43,1.66ZM111.13,23.81c0,1.01.07,1.15.14,1.58.07.5.22,1.01.86,1.08.79.07.65.07,1.51.07s.86-.07,1.73-.07.5.07,1.37-.14c.43-.14.79-.5.94-1.01.22-1.01.22-.5.22-1.51s-.07-1.01-.07-1.94v-1.94c0-.94.07-.94.07-1.94v-1.94c0-.94-.07-.94-.07-1.94v-1.94c0-.94.07-.72-.22-1.66-.14-.58-.36-.72-.79-.86-.86-.29-.58-.14-1.44-.14h-1.73c-.86,0-.65-.22-1.51.14-.5.14-.72.29-.86.86-.22.94-.14.72-.14,1.66,0,1.01-.07,1.01-.07,1.94,0,1.01.07,1.01.07,1.94v3.89c0,1.01-.07,1.01-.07,1.94s.07.94.07,1.94Z"/>
        <path class="cls-1" d="M145.04,55.64c.22.86.94,1.01.5,1.66-.58.72-.86,0-1.73,0h-5.18c-.79,0-1.08.65-1.66,0-.58-.72.14-.79.36-1.66.22-.79.36-.79.43-1.66.14-.94,0-.94,0-1.94v-1.87c0-.94.07-.94.07-2.02v-15.34c0-.94-.07-.94-.07-1.87,0-1.01.07-1.01.07-1.94v-1.87c0-.94-.07-.94-.07-1.94s.07-1.01.07-1.94v-9.58c0-.94-.07-.94-.07-1.94,0-.94.07-.94.07-1.87v-1.94c0-1.01.07-1.01-.07-1.94-.07-.86-.14-.86-.43-1.66-.14-.86-.94-1.01-.36-1.73.5-.65.86,0,1.66,0,.86,0,.86.07,1.73.07h1.73c.79,0,.79-.07,1.73-.07.86,0,1.15-.65,1.66.07.5.65-.22.79-.43,1.66-.22.79-.29.79-.43,1.66-.14.94.07.94.07,1.94v1.94c0,.94-.07.94-.07,1.87v1.94c0,.94.07.94.07,1.87s-.07.94-.07,2.02c0,.94.07.94.07,1.87v1.94c0,.94-.07.94-.07,1.87v1.94c0,1.01.07,1.01.07,1.94v1.87c0,.94-.07.94-.07,1.94,0,.94.07.94.07,1.94v9.58c0,.94-.07.94-.07,1.94v1.87c0,.94.07.94.07,1.87,0,1.08-.07,1.08-.07,2.02v1.87c0,1.01-.14,1.01,0,1.94q.14.86.43,1.66Z"/>
        <path class="cls-1" d="M166.35,55.64c.29.79.86.94.43,1.66-.58.65-.86,0-1.73,0h-5.18c-.79,0-1.08.65-1.66-.07-.58-.65.22-.79.36-1.58.29-.86.43-.79.5-1.66.14-.94-.07-.94-.07-2.02v-3.82c0-.94.07-.94.07-1.87v-11.59c0-.94-.07-.94-.07-1.87s.07-.94.07-1.87v-3.89c0-.94-.07-.94-.07-1.94,0-.94.07-.94.07-1.87v-7.7c0-.94-.07-.94-.07-1.87v-5.76c0-1.01.22-1.01.07-1.94-.07-.86-.22-.86-.5-1.73-.22-.86-1.01-1.01-.36-1.66.65-.79.94-.07,1.87-.07h3.89c.94,0,1.15-.5,1.87.07.79.58.29.86.5,1.73q.29.94.5,1.8l.43,1.87q.29.86.5,1.8c.22.86.14.86.43,1.8.22.86.29.86.5,1.73.29.94.29,1.01.5,1.87s.14.86.36,1.8q.29.86.5,1.8c.22.86.29.86.58,1.8l.43,1.8q.29.86.5,1.8l.43,1.73c.29,1.01.22,1.01.43,1.87.22.94.29.86.58,1.8l.43,1.8q.29.79.43,1.58c.14.79.36.79.36,0v-3.53c0-.94.07-.94.07-2.02v-7.78c0-1.01-.07-1.01-.07-1.94,0-1.01.07-1.01.07-2.02,0-.94-.07-.94-.07-1.94,0-.94.07-.94.07-1.87v-3.96c0-1.01.07-1.01-.07-1.94-.07-.86-.14-.86-.36-1.73-.29-.79-.94-1.01-.43-1.66.5-.72.86,0,1.66,0h1.8c.86,0,.86-.07,1.73-.07.79,0,.79.07,1.66.07s1.15-.72,1.73,0c.5.72-.22.79-.5,1.66-.22.86-.29.86-.36,1.73-.14.94,0,.94,0,1.94,0,.94-.07.94-.07,1.87v1.87c0,1.08.07,1.08.07,2.02v1.87c0,.94-.07.94-.07,1.94v1.87c0,1.01.07,1.01.07,2.02v3.74c0,1.01-.07,1.01-.07,1.94s.07.94.07,1.94c0,.94-.07.94-.07,1.94,0,.94.07.94.07,1.87s-.07.94-.07,1.87c0,1.01.07,1.01.07,2.02v13.39c0,.94-.07.94-.07,1.87,0,1.08-.07,1.08.07,2.02.07.79.14.79.36,1.66.29.79,1.08,1.01.5,1.66-.65.72-.94,0-1.94,0h-3.82c-.94,0-1.22.58-1.94,0-.79-.58-.29-.94-.5-1.8q-.29-.86-.5-1.87c-.22-.86-.14-.86-.36-1.8q-.29-.86-.5-1.73t-.5-1.8l-.43-1.87c-.29-.86-.36-.86-.58-1.73-.22-.94-.14-.94-.36-1.8-.29-.94-.36-.94-.58-1.87-.22-.86-.14-.94-.43-1.8l-.43-1.8q-.29-.86-.5-1.73l-.43-1.87q-.29-.86-.5-1.8-.22-.86-.5-1.8l-.43-1.73q-.29-.79-.43-1.73c-.14-.79-.65-.79-.65,0,0,.94.14.94.14,1.73.07.94,0,.94,0,1.87,0,1.01.07,1.01.07,1.94v2.02c0,.94-.07.94-.07,1.94s.07,1.01.07,2.02v5.83c0,1.01-.07,1.01-.07,2.02v3.89c0,1.01.07,1.01.07,1.94s-.22.94,0,2.02c.07.86.14.79.43,1.66Z"/>
        <path class="cls-1" d="M198.53.2c.79.07.79,0,1.58,0s.86-.36,1.58,0c.79.29.5.58,1.15,1.15.58.58.86.43,1.22,1.22.29.72,0,.79,0,1.58v5.11c0,1.08.36,1.15,0,2.09-.43.86-.72.72-1.44,1.44-.72.72-.65.79-1.44,1.44-.65.43-.72.29-1.44.65l-1.37.79c-.72.43-1.01,1.51-1.44.94-.79-1.08-.5-1.37,0-2.66.29-.86.72-.65,1.44-1.3.65-.72.86-.79,1.15-1.3.22-.43.43-.72.22-1.08-.14-.43-.29-.5-.72-.58-.65-.07-1.22.14-2.09,0-.79-.14-.65-.65-1.22-1.22-.65-.58-.86-.43-1.15-1.15-.36-.79,0-.79,0-1.58v-1.58c0-.79-.36-.86,0-1.58.29-.79.5-.65,1.15-1.22.58-.58.43-.86,1.22-1.15.72-.36.79-.14,1.58,0Z"/>
        <path class="cls-1" d="M8.31,114.64c.22.86.94,1.01.5,1.66-.58.72-.86,0-1.73,0H1.9c-.79,0-1.08.65-1.66,0-.58-.72.14-.79.36-1.66.22-.79.36-.79.43-1.66.14-.94,0-.94,0-1.94v-1.87c0-.94.07-.94.07-2.02v-15.34c0-.94-.07-.94-.07-1.87,0-1.01.07-1.01.07-1.94v-1.87c0-.94-.07-.94-.07-1.94s.07-1.01.07-1.94v-9.58c0-.94-.07-.94-.07-1.94,0-.94.07-.94.07-1.87v-1.94c0-1.01.07-1.01-.07-1.94-.07-.86-.14-.86-.43-1.66-.14-.86-.94-1.01-.36-1.73.5-.65.86,0,1.66,0,.86,0,.86.07,1.73.07h1.73c.79,0,.79-.07,1.73-.07.86,0,1.15-.65,1.66.07.5.65-.22.79-.43,1.66-.22.79-.29.79-.43,1.66-.14.94.07.94.07,1.94v1.94c0,.94-.07.94-.07,1.87v1.94c0,.94.07.94.07,1.87s-.07.94-.07,2.02c0,.94.07.94.07,1.87v1.94c0,.94-.07.94-.07,1.87v1.94c0,1.01.07,1.01.07,1.94v1.87c0,.94-.07.94-.07,1.94,0,.94.07.94.07,1.94v9.58c0,.94-.07.94-.07,1.94v1.87c0,.94.07.94.07,1.87,0,1.08-.07,1.08-.07,2.02v1.87c0,1.01-.14,1.01,0,1.94q.14.86.43,1.66Z"/>
        <path class="cls-1" d="M35.46,63.45c-.07,1.08.14,1.08.29,2.02.14.94.29.94.43,1.87.14.94.94,1.22.22,1.94-.65.65-.86-.29-1.73-.43q-.86-.22-1.8-.29c-1.15-.22-1.15,0-2.23,0-1.15,0-.79-.22-1.94.07-.5.14-.72.43-.86.94-.29.94-.22.65-.22,1.58s.07.94.07,1.87c0,1.01-.07,1.01-.07,1.94v7.56c0,1.01.07,1.01.07,1.94v1.87c0,.94-.07.94-.07,1.94v7.56c0,.94.07.94.07,1.94,0,.94-.07.94-.07,1.87v1.87c0,1.01-.07,1.01-.07,1.94s.07.94.07,1.87v5.69c0,1.01-.07,1.01.07,1.94q.07.86.29,1.66c.29.86,1.01.94.5,1.66-.58.65-.86,0-1.66,0-.86,0-.86.07-1.73.07s-.86-.07-1.73-.07h-1.73c-.86,0-1.15.72-1.73,0-.5-.65.29-.79.5-1.66.22-.79.29-.79.43-1.66.14-.94-.07-.94-.07-1.94,0-.94.07-.94.07-1.87s-.07-.94-.07-1.87v-15.27c0-.94-.07-.94-.07-1.87s.07-.94.07-1.87c0-1.01.07-1.01.07-1.94v-1.87c0-.94-.07-.94-.07-1.94,0-.94.07-.94.07-1.87v-1.87c0-1.01-.07-1.01-.07-1.94v-3.82c0-.94.07-.94.07-1.87s.14-.65-.14-1.58c-.14-.58-.5-.72-1.08-.86-1.15-.22-.72-.14-1.8-.14-1.22,0-1.22-.22-2.3,0-.86.07-.86.14-1.8.29-.94.22-1.15,1.01-1.8.43-.65-.72.07-1.01.22-1.94.22-.94.29-.94.43-1.87l.29-2.02c.22-.94-.36-1.22.36-1.87.72-.65.94.07,1.8.07h5.47c.94,0,.94-.07,1.87-.07h1.87c.86,0,.86.07,1.8.07h1.8c.86,0,.86-.07,1.87-.07h1.8c.94,0,.94.07,1.8.07.94,0,1.22-.72,1.94-.07.65.65.22.86.22,1.87Z"/>
        <path class="cls-1" d="M62.31,116.3c-.79-.14-.94,0-1.73,0h-3.46c-.79,0-1.08.72-1.66,0-.5-.65.22-.79.5-1.58.14-.86.22-.86.36-1.66.07-.94,0-1.01,0-2.02v-7.63c0-1.01-.07-1.01-.07-1.94s.07-.94.07-1.87v-26.86c0-1.01-.07-1.01-.07-2.02v-1.87c0-.94.07-.94.07-1.87,0-1.01.14-1.01,0-1.94-.07-.86-.22-.86-.36-1.73-.29-.86-1.15-1.01-.5-1.73.65-.72.94,0,1.94,0h3.96c1.08,0,1.08.07,2.09.07.94,0,.94-.07,2.02-.07,1.01,0,1.01.07,1.94.07,1.01,0,1.01-.07,2.02-.07s1.01.07,2.02.07c.94,0,1.01-.43,2.02,0,.72.22.5.58,1.08,1.08q.58.58,1.22,1.15c.5.5.79.36,1.01,1.15.29.86.07.86.07,1.87,0,.94-.07.94-.07,1.8,0,.94.07.94.07,1.87v3.67c0,.94-.07.94-.07,1.8,0,.94.07.94.07,1.94v9.14c0,.94.29,1.01,0,1.94-.29.65-.58.5-1.08,1.08-.58.65-.65.58-1.22,1.08-.65.58-.72.65-.94,1.22-.22.58-.07.86.07,1.8q.07.94.22,1.94t.36,1.8.22,1.87c.07.86.14.86.29,1.87.07.94.22.94.29,1.8.14.94.07.94.22,1.87.07.94.22.86.29,1.87q.22.94.36,1.87l.14,1.8c.14.94.07.94.22,1.94.29.86.43.86.65,1.73.29.86,1.08.94.58,1.73-.5.72-.86,0-1.73,0h-1.73c-.86,0-.86-.07-1.73-.07h-1.73c-.79,0-1.15.72-1.73.07-.5-.65.22-.86.36-1.66.22-.79.29-.79.29-1.58,0-.94-.07-.94-.29-1.8q-.07-1.01-.22-1.87l-.29-1.8q-.07-.94-.29-1.8c-.14-.94-.07-.94-.14-1.87-.14-.94-.22-.94-.29-1.8-.14-.94-.07-.94-.29-1.87l-.29-1.73c-.07-1.01-.14-1.01-.29-1.87q-.07-.94-.29-1.8c-.14-.94-.07-.65-.36-1.58-.07-.22-.14-.72-.58-.79-1.01-.29-.79-.29-1.8-.07-.58.14-.65.43-.79,1.01-.22.94-.14.72-.14,1.73v2.02c0,.94-.07.94-.07,1.94s.07,1.01.07,2.02v5.9c0,1.01-.07,1.01-.07,2.02,0,.94.07.94.07,1.94s-.07,1.01,0,2.02c.07.79.14.79.36,1.66.22.79.94.94.5,1.66-.58.65-.79.14-1.73-.07ZM63.17,80.94v1.94c0,.94-.07.79.14,1.73.14.5.36.79.94.94.79.22.58.14,1.44.07.86-.07.86,0,1.73,0,.94,0,.65.07,1.51-.22.5-.14.72-.29.86-.86.29-.86.22-.72.22-1.66v-9.65c0-1.08-.07-1.08-.07-2.02s.07-.72-.14-1.58c-.14-.58-.29-.94-.86-1.01-.86-.14-.58-.07-1.51-.07h-1.73c-.86,0-.58-.07-1.44.07-.58.07-.79.36-.94.86-.22.94-.14.79-.14,1.73v5.83c0,1.01-.07,1.01-.07,1.94s.07.94.07,1.94Z"/>
        <path class="cls-1" d="M100.54,62.65q.43.65,1.08,1.22c.58.5.86.29,1.15,1.08.36.86,0,.94,0,1.94v3.74c0,1.08-.07,1.08-.07,2.02s.07.94.07,1.87v1.94c0,.94-.07.94-.07,1.87v11.52c0,1.01.07,1.01.07,1.94v1.87c0,1.01-.07,1.01-.07,1.94v1.87c0,.94.07.94.07,1.94s-.07,1.01-.07,1.94v7.63c0,1.01.07,1.01.07,1.94s.29.94-.07,1.94c-.29.72-.5.58-1.08,1.15s-.58.58-1.08,1.15c-.58.5-.43.79-1.22,1.08-.86.29-.94,0-1.94,0h-1.94c-1.01,0-1.01-.07-1.94-.07-1.01,0-1.01.07-2.02.07-.94,0-.94-.07-1.87-.07-1.08,0-1.08.07-2.02.07s-1.01.29-1.94,0c-.72-.22-.58-.58-1.15-1.22-.5-.5-.58-.43-1.15-1.01-.58-.65-.79-.43-1.01-1.15-.43-1.01-.14-1.01-.14-1.94s.14-.94.14-1.94c0-.94-.14-.94-.14-1.94,0-.94.14-.94.14-1.87v-5.76c0-1.01-.14-1.01-.14-1.94s.14-.94.14-1.87-.14-.94-.14-1.94c0-.94.14-.94.14-1.87s-.14-.94-.14-1.94v-9.65c0-.94.14-.94.14-1.87s-.14-.94-.14-1.87v-1.94c0-.94.14-.94.14-1.87s-.14-.94-.14-2.02c0-.94.14-.94.14-1.87s-.14-.94-.14-1.87c0-1.01-.29-1.08,0-1.94.36-.79.58-.58,1.15-1.15.65-.58.65-.5,1.15-1.08.58-.58.43-.86,1.15-1.15.94-.36,1.01,0,1.94,0h9.79c1.01,0,1.08-.36,1.94,0,.79.29.65.43,1.22,1.08ZM89.02,84.33v3.67c0,.94.07.94.07,1.94,0,.94-.07.94-.07,1.8v15.05c0,.94-.14.72.14,1.58.14.58.43.79.86.94.86.36.65.14,1.51.14s.86-.07,1.73-.07c.94,0,.72.14,1.51-.14.58-.14.65-.22.79-.79.36-.86.29-.72.29-1.66v-3.74c0-.94.07-.94.07-1.87s-.07-.94-.07-1.94v-1.8c0-.94.07-.94.07-1.87s-.07-.94-.07-1.94c0-.94.07-.94.07-1.87,0-.86-.07-.86-.07-1.8v-3.82c0-.94.07-.94.07-1.8v-1.94c0-.94-.07-.94-.07-1.87v-1.94c0-.86.07-.86.07-1.8v-1.87c0-1.01-.07-1.01-.07-1.94v-1.8c0-.94.07-1.22-.22-1.66-.22-.58-.36-.86-.94-.94-.86-.07-.5-.07-1.44-.07h-1.73c-.86,0-.72-.22-1.51.07-.5.14-.5.5-.72.94-.14.36-.22.72-.22,1.66,0,.86-.07.86-.07,1.8v7.56c0,.94-.07.94-.07,1.87s.07.94.07,1.94Z"/>
        <path class="cls-1" d="M147.49,67.77l-.29,1.87q-.22.94-.36,1.87l-.29,1.94q-.14,1.01-.36,1.94l-.29,1.94c-.14.94-.07.94-.22,1.87-.14.94-.29.94-.43,1.94l-.29,1.87q-.07.94-.22,1.94l-.29,1.94-.29,1.87q-.14.94-.36,1.94l-.29,1.87q-.07.94-.22,1.87t-.36,2.02c-.14.94-.22.86-.36,1.87-.14,1.01-.07,1.01-.22,1.94q-.22.94-.36,1.87l-.29,1.94c-.14.94-.07.94-.29,1.87-.14.94-.22.94-.36,1.87l-.14,2.02c-.14.94-.29.94-.43,1.87-.14.94-.36.94-.29,1.94.14,1.3,1.37,1.3.79,2.59-.36.86-.94,0-1.8,0h-3.82c-.86,0-.86-.07-1.87-.07-.94,0-1.44.94-1.87.07-.5-1.3.65-1.3.79-2.59.07-1.01-.14-1.01-.22-1.94-.14-.94-.29-.94-.43-1.8q-.07-.94-.22-1.87c-.14-1.01-.22-1.01-.29-1.87-.22-.94-.14-.94-.29-1.87l-.29-1.94q-.14-.94-.36-1.8l-.29-1.87-.29-1.94c-.07-.86-.22-.86-.36-1.8-.14-.94-.07-.94-.22-1.87l-.29-1.87q-.22-.94-.36-1.87c-.14-.94-.22-.94-.36-1.8-.07-1.01-.22-1.01-.29-1.94-.07-.86-.22-.86-.29,0q-.07.94-.22,1.94-.22.86-.36,1.8l-.29,1.87c-.07,1.01-.14.86-.36,1.87-.07.94-.14.94-.29,1.87-.07.94,0,.94-.14,1.87q-.14.94-.36,1.87l-.29,1.87-.29,1.8q-.22,1.01-.36,1.94c-.14.94-.07.94-.22,1.8l-.29,1.94q-.21.94-.36,1.87c-.14.86-.07.86-.22,1.8-.14.94-.36.94-.22,1.94.14,1.3,1.22,1.3.79,2.59-.43.86-1.08,0-1.94,0h-1.87c-.94,0-.94-.07-1.94-.07h-1.8c-.94,0-1.51.94-1.87.07-.5-1.3.58-1.3.79-2.59.07-1.01-.07-1.01-.29-1.94-.14-.94-.22-.94-.36-1.87-.14-.94-.07-.94-.22-1.94-.22-.94-.22-1.01-.36-1.94l-.29-1.87q-.14-1.01-.36-1.94c-.14-.94-.22-.94-.36-1.87q-.07-.94-.22-1.94-.22-.94-.36-1.87c-.14-.94-.07-.94-.22-1.87q-.14-1.01-.36-1.94l-.29-1.87c-.14-.94-.22-.94-.36-1.94q-.22-.94-.36-1.87c-.14-.94-.07-.94-.22-1.87q-.14-1.01-.36-1.94c-.14-1.01-.07-1.01-.22-1.94-.14-1.01-.22-1.01-.36-1.94-.22-.94-.07-.94-.29-1.87l-.29-1.94-.29-1.87q-.22-.94-.36-1.87l-.29-1.94c-.14-.94-.29-.94-.36-1.87-.14-.94,0-.94-.22-1.94-.29-1.15-.5-1.08-.79-2.16-.36-1.15-1.3-1.22-.79-2.23.43-.86.94,0,1.8,0h5.4c.86,0,1.22-.65,1.73,0,.58.58-.14.72-.36,1.44-.14.72-.5.58-.5,1.37-.07,1.01.14,1.01.36,1.94l.29,1.8c.14.94.07.94.22,1.94.22.94.07.94.29,1.87l.29,1.8c.14.94.21.94.29,1.94q.22.86.36,1.8c.14.94.07.94.14,1.87l.29,1.94c.21.94.21.86.36,1.8l.29,1.87c.14,1.01.07,1.01.29,1.94l.29,1.8.29,1.94c.22.94.07.94.29,1.87q.07.86.22,1.8c.14.94.22.94.29,1.94.07.94.22.94.36,0l.29-1.87q.14-.94.22-1.87.22-.86.36-1.8c.07-1.01.14-1.01.22-1.87q.14-.94.22-1.87c.22-.86.14-.86.29-1.8l.29-1.87c.07-.94.14-.94.36-1.8.07-.94,0-.94.14-1.87q.14-.86.22-1.87l.29-1.8q.22-.94.29-1.87.14-.86.22-1.87l.29-1.8q.22-.94.36-1.8c.14-.94.07-.94.22-1.94.07-.94.22-.86.22-1.8-.07-.86-.14-.86-.29-1.66-.14-.86-.94-1.01-.36-1.73.5-.65.86.07,1.8.07h5.33c.86,0,1.15-.72,1.73,0,.5.65-.14.79-.43,1.66-.14.79-.29.79-.29,1.66,0,.94.22.86.29,1.8q.14,1.01.36,1.87c.14.94.07.94.22,1.87.07.86.14.86.29,1.8.07,1.01,0,1.01.22,1.87l.29,1.87c.07.86.14.86.29,1.8.22,1.01.07,1.01.29,1.87l.29,1.8.29,1.87.29,1.87c.14.94.07.94.22,1.8q.07.94.22,1.87c.22.86.29.86.36,1.87l.29,1.8q.07.94.22,1.87c.14.86.29.86.36,1.87.07.94.07,1.15.22,0q.14-1.01.22-1.94.22-.94.36-1.8l.29-1.87q.07-1.01.29-1.94.07-.94.22-1.8c.14-.94.22-.94.29-1.94l.29-1.87.29-1.8q.14-.94.22-1.94.14-.94.36-1.87c.07-.86.14-.86.22-1.8.14-1.01.07-1.01.22-1.94l.29-1.87c.14-.86.22-.86.36-1.8q.07-1.01.22-1.94c.22-.94.07-.94.29-1.8.14-.94.29-.94.29-1.94-.07-.79-.22-.65-.5-1.37-.22-.72-.94-.86-.43-1.44.65-.65.94,0,1.8,0s.86-.07,1.73-.07c1.01,0,1.01.14,1.87.14s.86-.07,1.8-.07c.86,0,1.37-.79,1.8,0,.5.94-.36,1.08-.72,2.16s-.5,1.01-.79,2.09c-.22.94-.14.94-.22,1.94Z"/>
        <path class="cls-1" d="M152.6,62.94c-.14-.79-.94-1.08-.29-1.58.72-.79.94-.14,1.94-.14s1.01.14,2.02.14,1.01-.14,1.94-.14h8.06c1.01,0,1.01.14,1.94.14,1.01,0,1.08-.5,2.09-.14.72.29.5.58,1.08,1.15.65.58.58.65,1.08,1.15.58.58.79.43,1.15,1.15.29.94,0,.94,0,1.87s.07.94.07,2.02v30.6c0,1.01-.07,1.01-.07,1.94s.07.94.07,1.87-.07.94-.07,1.94c0,.94.07.94.07,1.94,0,.94-.07.94-.07,1.87v1.94c0,.94.29,1.01,0,1.87-.22.79-.58.58-1.15,1.22l-1.08,1.08c-.58.58-.36.86-1.08,1.15-1.01.36-1.08,0-2.09,0-.94,0-.94.07-1.94.07h-3.96c-1.08,0-1.08-.07-2.09-.07-.94,0-.94.07-2.02.07-.94,0-.94-.07-1.94-.07h-2.02c-1.01,0-1.3.72-1.94,0-.65-.65.14-.94.29-1.73.29-.86.36-.86.43-1.73.14-.94.07-.94.07-1.87v-3.89c0-.94-.07-.94-.07-1.87v-1.94c0-.94.07-.94.07-1.87v-5.83c0-.94-.07-.94-.07-1.87v-1.87c0-1.08.07-1.08.07-2.02s-.07-.94-.07-1.87v-1.94c0-.94.07-.94.07-1.87,0-1.01-.07-1.01-.07-2.02,0-.94.07-.94.07-1.87v-1.87c0-1.01-.07-1.01-.07-1.94,0-1.01.07-1.01.07-1.94v-3.82c0-.94-.07-.94-.07-1.87v-2.02c0-.94.07-.94,0-1.87-.07-.79-.14-.79-.43-1.66ZM160.01,102.69v3.67c0,1.01-.07.65.14,1.51.14.58.29.79.86,1.08.79.22.65.14,1.51.14h1.73c.86,0,.65.07,1.51-.14.5-.29.58-.36.72-.86.29-.94.22-.72.22-1.73,0-.86.07-.86.07-1.8v-3.82c0-.94-.07-.94-.07-1.8v-1.87c0-1.01.07-1.01.07-1.94v-5.62c0-.94-.07-.94-.07-1.87v-1.87c0-.94.07-.94.07-1.87s-.07-.94-.07-1.87v-1.94c0-.86.07-.86.07-1.8s-.07-.94-.07-1.87c0-1.01.07-1.01.07-1.94v-1.8c0-.94-.07-.94-.07-1.94,0-.94.07-.65-.14-1.58-.14-.5-.29-.79-.79-.94-.86-.29-.65-.14-1.51-.14s-.86.07-1.73.07-.72-.07-1.51.14c-.58.29-.79.36-.94.79-.29,1.01-.14.72-.07,1.66.07,1.01,0,1.01,0,1.94v7.42c0,.94-.07.94-.07,1.94,0,.94.07.94.07,1.87s-.07.94-.07,1.87.07.94.07,1.87-.07.94-.07,1.87v3.74c0,.94.07.94.07,1.87v3.82c0,.86-.07.86-.07,1.8,0,1.01.07,1.01.07,1.94Z"/>
        <path class="cls-1" d="M194.21,94.77q.07.86.07,1.8c0,.86-.07.86-.07,1.8v1.87c0,.86.07.86.07,1.73,0,.94-.07.94-.07,1.8v7.27c0,.86-.22,1.01,0,1.87.07.86.29.86.43,1.66.29.86.86,1.01.43,1.73-.58.65-.86,0-1.66,0h-3.53c-.79,0-.79.07-1.66.07s-1.15.65-1.73-.07c-.58-.72.22-.86.36-1.73.29-.79.36-.79.5-1.66.07-1.01,0-1.01,0-1.87v-3.67c0-1.01.07-1.01.07-1.87,0-.94-.07-.94-.07-1.8v-7.42c0-.86.07-.86.07-1.87,0-.86.07-.94-.07-1.8-.07-.94-.29-.86-.58-1.73l-.43-1.8c-.29-.94-.36-.94-.58-1.8s-.29-.86-.58-1.73c-.29-.94-.22-.94-.43-1.8q-.36-.86-.58-1.73t-.5-1.87-.5-1.73-.65-1.73q-.22-.94-.58-1.8c-.22-.86-.14-.86-.43-1.8-.29-.86-.29-.94-.5-1.8l-.58-1.73c-.22-.86-.29-.86-.58-1.73-.29-.86-.22-.94-.5-1.87-.22-.86-.14-.86-.58-1.73-.29-.72-.36-.72-.86-1.3-.36-.72-1.44-.79-.86-1.37.65-.79,1.01,0,2.02,0s1.01-.07,2.02-.07c.94,0,.94.07,2.02.07.94,0,.94-.07,1.94-.07s1.58-.79,2.02.07c.5,1.08-.65,1.08-.79,2.38,0,.94.29.86.5,1.73.29.94.22.94.43,1.8.22.86.29.86.43,1.8q.29.94.5,1.8c.22.86.14.94.43,1.8.22.86.29.86.5,1.73.29.86.14,1.01.43,1.87.22.86.29.86.5,1.73l.43,1.8c.22,1.01.36,1.01.65,0l.43-1.8q.29-.86.5-1.73c.22-1.01.22-.86.5-1.87.22-.86.14-.86.36-1.73q.22-.94.5-1.8l.43-1.8c.29-.94.36-.94.58-1.8s.22-.86.5-1.73c.22-.94.43-.94.36-1.8-.07-1.3-1.44-1.3-.86-2.38.5-.86,1.01,0,2.09,0h1.94c1.01,0,1.01.07,2.02.07s1.01-.14,2.02-.14,1.44-.79,2.09.07c.43.65-.5.72-.94,1.51-.43.72-.5.72-.79,1.51-.43.86-.36.86-.58,1.73-.22.94-.36.86-.65,1.8-.22.86-.14.86-.5,1.73l-.43,1.87c-.22.86-.43.79-.65,1.73q-.22.86-.58,1.73c-.22.86-.14.86-.43,1.8q-.29.86-.5,1.8-.29.86-.65,1.73c-.22.86-.14.94-.43,1.8s-.36.86-.65,1.73c-.22.86-.14.86-.43,1.87l-.58,1.73-.58,1.73q-.22.86-.5,1.8c-.22.86-.29.79-.43,1.73-.14.94-.07.94-.07,1.87Z"/>
      </g>
      <path class="cls-2" d="M168.99,8.33"/>
    </g>
  </g>
</svg>